<mxfile host="app.diagrams.net" modified="2022-03-08T14:34:24.637Z" agent="5.0 (X11; Linux x86_64) AppleWebKit/537.36 (KHTML, like Gecko) Chrome/98.0.4758.102 Safari/537.36" etag="Iqr7mGLrZoiurLaePaXm" version="16.6.6" type="github">
  <diagram id="6Uh8mgrlfWPGmFSLjJrp" name="Page-1">
    <mxGraphModel dx="426" dy="762" grid="1" gridSize="10" guides="1" tooltips="1" connect="1" arrows="1" fold="1" page="1" pageScale="1" pageWidth="827" pageHeight="1169" math="0" shadow="0">
      <root>
        <mxCell id="0" />
        <mxCell id="1" parent="0" />
        <mxCell id="AdrD0R3gAatYoqR_zHg5-1" value="" style="endArrow=classic;html=1;rounded=0;entryX=0.5;entryY=0;entryDx=0;entryDy=0;" edge="1" parent="1" target="AdrD0R3gAatYoqR_zHg5-3">
          <mxGeometry width="50" height="50" relative="1" as="geometry">
            <mxPoint x="480" y="80" as="sourcePoint" />
            <mxPoint x="360" y="200" as="targetPoint" />
          </mxGeometry>
        </mxCell>
        <mxCell id="AdrD0R3gAatYoqR_zHg5-2" value="" style="endArrow=classic;html=1;rounded=0;" edge="1" parent="1">
          <mxGeometry width="50" height="50" relative="1" as="geometry">
            <mxPoint x="480" y="80" as="sourcePoint" />
            <mxPoint x="760" y="200" as="targetPoint" />
          </mxGeometry>
        </mxCell>
        <mxCell id="AdrD0R3gAatYoqR_zHg5-3" value="&lt;font size=&quot;3&quot;&gt;مدل کردن پویا (ابزار ریاضیاتی) - توانایی محاسباتی بالا&lt;/font&gt;" style="text;html=1;strokeColor=none;fillColor=none;align=center;verticalAlign=middle;whiteSpace=wrap;rounded=0;" vertex="1" parent="1">
          <mxGeometry y="200" width="400" height="30" as="geometry" />
        </mxCell>
        <mxCell id="AdrD0R3gAatYoqR_zHg5-4" value="روش های داده محور" style="text;html=1;strokeColor=none;fillColor=none;align=center;verticalAlign=middle;whiteSpace=wrap;rounded=0;fontSize=14;" vertex="1" parent="1">
          <mxGeometry x="560" y="200" width="410" height="30" as="geometry" />
        </mxCell>
        <mxCell id="AdrD0R3gAatYoqR_zHg5-5" value="" style="endArrow=classic;html=1;rounded=0;fontSize=14;exitX=0.485;exitY=1.133;exitDx=0;exitDy=0;exitPerimeter=0;" edge="1" parent="1" source="AdrD0R3gAatYoqR_zHg5-4">
          <mxGeometry width="50" height="50" relative="1" as="geometry">
            <mxPoint x="700" y="370" as="sourcePoint" />
            <mxPoint x="560" y="320" as="targetPoint" />
          </mxGeometry>
        </mxCell>
        <mxCell id="AdrD0R3gAatYoqR_zHg5-6" value="مدل های آماری کلاسیک (مدل خود همبسته میانگین متحرک) - فرضیات ثابتی درباره توالی های زمانی" style="text;html=1;strokeColor=none;fillColor=none;align=center;verticalAlign=middle;whiteSpace=wrap;rounded=0;fontSize=14;" vertex="1" parent="1">
          <mxGeometry x="360" y="320" width="410" height="30" as="geometry" />
        </mxCell>
        <mxCell id="AdrD0R3gAatYoqR_zHg5-7" value="" style="endArrow=classic;html=1;rounded=0;fontSize=14;exitX=0.485;exitY=1.133;exitDx=0;exitDy=0;exitPerimeter=0;" edge="1" parent="1" source="AdrD0R3gAatYoqR_zHg5-4">
          <mxGeometry width="50" height="50" relative="1" as="geometry">
            <mxPoint x="760" y="240" as="sourcePoint" />
            <mxPoint x="960" y="320" as="targetPoint" />
          </mxGeometry>
        </mxCell>
        <mxCell id="AdrD0R3gAatYoqR_zHg5-8" value="مدل های یادگیری ماشین&amp;nbsp;" style="text;html=1;strokeColor=none;fillColor=none;align=center;verticalAlign=middle;whiteSpace=wrap;rounded=0;fontSize=14;" vertex="1" parent="1">
          <mxGeometry x="870" y="320" width="180" height="30" as="geometry" />
        </mxCell>
        <mxCell id="AdrD0R3gAatYoqR_zHg5-9" value="" style="endArrow=none;dashed=1;html=1;dashPattern=1 3;strokeWidth=2;rounded=0;fontSize=14;entryX=0.5;entryY=1;entryDx=0;entryDy=0;" edge="1" parent="1" target="AdrD0R3gAatYoqR_zHg5-8">
          <mxGeometry width="50" height="50" relative="1" as="geometry">
            <mxPoint x="960" y="440" as="sourcePoint" />
            <mxPoint x="960" y="550" as="targetPoint" />
          </mxGeometry>
        </mxCell>
        <mxCell id="AdrD0R3gAatYoqR_zHg5-10" value="" style="endArrow=classic;html=1;rounded=0;fontSize=14;" edge="1" parent="1">
          <mxGeometry width="50" height="50" relative="1" as="geometry">
            <mxPoint x="960" y="440" as="sourcePoint" />
            <mxPoint x="960" y="450" as="targetPoint" />
          </mxGeometry>
        </mxCell>
        <mxCell id="AdrD0R3gAatYoqR_zHg5-11" value="شبکه های عمیق" style="text;html=1;strokeColor=none;fillColor=none;align=center;verticalAlign=middle;whiteSpace=wrap;rounded=0;fontSize=14;" vertex="1" parent="1">
          <mxGeometry x="910" y="450" width="100" height="30" as="geometry" />
        </mxCell>
      </root>
    </mxGraphModel>
  </diagram>
</mxfile>
